<svg viewBox="734.3213530655391 0 359.4080338266385 355.7037037037037" data-version="1" data-id="lg_XyIHdvZKtykgKAfPiu" xml:space="preserve" xmlns="http://www.w3.org/2000/svg" style="max-height: 500px" width="359.4080338266385" height="355.7037037037037">
	
		<g transform="translate(10 6.114)scale(.96435)">
			<path d="M939.172.057a171.443 171.443 0 1 0 0 342.886 171.443 171.443 0 1 0 0-342.886" fill="#ff5858" />
			<rect transform="translate(590.76 398.6)" ry="0" rx="0" fill="none" y="-394.6" x="557.985" height="332.22" width="179.494" />
			<path d="M1215.782 64.35v80.82l72.64-4.3 1.43 1.86-6.74 11.77q-5.75-.28-11.92-.43-6.17-.14-12.92-.14-9.76 0-20.31.29-10.55.28-22.18.86v81.54q0 5.88 1.08 10.05 1.07 4.16 3.66 7.03 2.58 2.87 6.96 4.67 4.38 1.79 10.98 2.94l-1.29 3.44q-8.76-1.14-15.07-1.72-6.32-.57-10.34-.57t-9.04.57q-5.03.58-11.06 1.72l-.86-1.43q2.87-4.16 2.87-15.22V95.79q0-9.47-.86-15.58-.86-6.1-3.16-9.76-2.29-3.66-6.39-5.09-4.09-1.44-10.55-1.44h-2.08q-1.07 0-2.22.14l-.58-4.16q40.92-6.46 90.16-6.46 25.12 0 52.68 1.72l1 2.44-13.63 35.75-4.6-1.44q1.15-5.45 1.73-10.04.57-4.6.57-8.98t-1.15-8.25q-10.77-1.01-21.17-1.51-10.41-.5-20.75-.5-18.8 0-36.89 1.72" fill="#ff5858" />
			<rect transform="translate(291.95 398.68)" ry="0" rx="0" fill="none" y="-337.535" x="588.78" height="218.09" width="117.903" />
			<path d="M926.142 102.09v53.06l47.69-2.83.94 1.22-4.43 7.73q-3.77-.19-7.82-.28-4.06-.1-8.48-.1-6.41 0-13.34.19t-14.56.57v53.53q0 3.86.71 6.59.7 2.74 2.4 4.62 1.7 1.89 4.57 3.06 2.88 1.18 7.21 1.94l-.85 2.26q-5.75-.76-9.89-1.13-4.15-.38-6.79-.38t-5.93.38q-3.3.37-7.26 1.13l-.57-.95q1.89-2.73 1.89-9.98v-99.99q0-6.22-.57-10.23-.56-4-2.07-6.4-1.51-2.41-4.19-3.35-2.69-.94-6.93-.94h-1.37q-.7 0-1.46.09l-.37-2.73q26.85-4.24 59.18-4.24 16.49 0 34.58 1.13l.66 1.6-8.95 23.47-3.02-.95q.76-3.58 1.13-6.59.38-3.02.38-5.89 0-2.88-.75-5.42-7.07-.66-13.9-.99t-13.62-.33q-12.35 0-24.22 1.13" fill="#fff" />
		</g>
		<path d="M740.123 0h561v343h-561z" stroke="transparent" fill="transparent" />
	</svg>
